<svg width="512" height="512" viewBox="0 0 512 512" fill="none" xmlns="http://www.w3.org/2000/svg">
  <title>GitHub Pulls Show Reviewers icon</title>
  <circle cx="240" cy="232" r="150" fill="#FFFFFF" />

  <!-- GitHub mark adapted from Primer Octicons mark-github-16 (MIT License). -->
  <g transform="translate(72 64) scale(21)">
    <path
      fill="#24292F"
      d="M6.766 11.328c-2.063-.25-3.516-1.734-3.516-3.656 0-.781.281-1.625.75-2.188-.203-.515-.172-1.609.063-2.062.625-.078 1.468.25 1.968.703.594-.187 1.219-.281 1.985-.281.765 0 1.39.094 1.953.265.484-.437 1.344-.765 1.969-.687.218.422.25 1.515.046 2.047.5.593.766 1.39.766 2.203 0 1.922-1.453 3.375-3.547 3.64.531.344.89 1.094.89 1.954v1.625c0 .468.391.734.86.547C13.781 14.359 16 11.53 16 8.03 16 3.61 12.406 0 7.984 0 3.563 0 0 3.61 0 8.031a7.88 7.88 0 0 0 5.172 7.422c.422.156.828-.125.828-.547v-1.25c-.219.094-.5.156-.75.156-1.031 0-1.64-.562-2.078-1.609-.172-.422-.36-.672-.719-.719-.187-.015-.25-.093-.25-.187 0-.188.313-.328.625-.328.453 0 .844.281 1.25.86.313.452.64.655 1.031.655s.641-.14 1-.5c.266-.265.47-.5.657-.656"
    />
  </g>

  <circle cx="350" cy="354" r="82" fill="#F0EDFF" stroke="#2EA043" stroke-width="24" />
  <g fill="#6F42C1">
    <rect x="322" y="306" width="16" height="16" />
    <rect x="362" y="306" width="16" height="16" />
    <rect x="302" y="326" width="16" height="16" />
    <rect x="342" y="326" width="16" height="16" />
    <rect x="382" y="326" width="16" height="16" />
    <rect x="322" y="346" width="16" height="16" />
    <rect x="362" y="346" width="16" height="16" />
    <rect x="302" y="366" width="16" height="16" />
    <rect x="342" y="366" width="16" height="16" />
    <rect x="382" y="366" width="16" height="16" />
    <rect x="322" y="386" width="16" height="16" />
    <rect x="362" y="386" width="16" height="16" />
  </g>

  <circle cx="414" cy="410" r="46" fill="#2EA043" />
  <path
    d="M395 410L408 423L434 391"
    stroke="#F6F8FA"
    stroke-width="18"
    stroke-linecap="round"
    stroke-linejoin="round"
  />
</svg>
